<?xml version="1.0" encoding="UTF-8"?>
<svg width="50px" height="57px" viewBox="0 0 40 57" version="1.1" xmlns="http://www.w3.org/2000/svg" xmlns:xlink="http://www.w3.org/1999/xlink">
    <!-- Generator: Sketch 64 (93537) - https://sketch.com -->
    <title>Group 3</title>
    <desc>Created with Sketch.</desc>
    <g id="Live-PT-Web-CLP" stroke="none" stroke-width="1" fill="none" fill-rule="evenodd">
        <g id="Artboard" transform="translate(-664.000000, -464.000000)">
            <g id="Group-3" transform="translate(664.000000, 465.000000)">
                <path d="M11.1700904,36.357416 C12.3335921,35.8366001 13.7325491,35.8879244 14.8399877,36.4920555 C15.9448836,37.0947994 16.5951991,38.1587604 16.5395501,39.2657808 L16.5395501,39.2657808 L16.5393318,42.0666178 L28.4912085,42.0666178 L28.4912307,39.2700034 C28.5094167,37.6002211 30.0498189,36.2334002 31.9964366,36.1616564 C33.7660395,36.0964365 35.3306958,37.1270675 35.7230249,38.5955633 L35.7230249,38.5955633 L35.7648563,38.752139 L36.3378108,38.7521391 C38.3594259,38.7541181 39.9976935,40.1597505 40,41.8942947 L40,41.8942947 L40,44.105893 C39.997732,45.835022 38.3691639,47.2379561 36.3513716,47.2478295 L36.3513716,47.2478295 L35.779975,47.2478262 L35.7450321,47.4135604 C35.420413,48.9532321 33.8134375,50.0645712 31.9739377,49.9970845 C29.9505181,49.9228502 28.3741815,48.4556148 28.4604516,46.7341576 L28.4604516,46.7341576 L28.4606686,43.9300722 L16.5087918,43.9300722 L16.5087697,46.7299618 C16.4905836,48.399744 14.9501815,49.7665649 13.0035638,49.8383088 C11.2339609,49.9035286 9.66930456,48.8728976 9.27697545,47.4044018 L9.27697545,47.4044018 L9.23514407,47.2478261 L8.66192153,47.2478259 C6.64048204,47.245847 5.00230674,45.8401354 5,44.1051247 L5,44.1051247 L5,41.8940647 C5.00230693,40.1596712 6.64066686,38.754118 8.66282553,38.7521388 L8.66282553,38.7521388 L9.22020649,38.7521389 L9.25532959,38.5866319 C9.45785233,37.6323045 10.1630236,36.8082072 11.1700904,36.357416 Z M12.8615056,37.9954519 C12.0382163,37.9954519 11.3708084,38.5680874 11.3708084,39.274469 L11.3708084,39.274469 L11.3708084,46.7254961 C11.3708084,47.4318778 12.0382163,48.0045132 12.8615056,48.0045132 C13.6847949,48.0045132 14.3522028,47.4318778 14.3522028,46.7254961 L14.3522028,46.7254961 L14.3522028,39.274469 C14.3522028,38.5680874 13.6847949,37.9954519 12.8615056,37.9954519 Z M32.1384948,37.9954519 C31.3152054,37.9954519 30.6477975,38.5680874 30.6477975,39.274469 L30.6477975,39.274469 L30.6477975,46.7254961 C30.6477975,47.4318778 31.3152054,48.0045132 32.1384948,48.0045132 C32.9617841,48.0045132 33.629192,47.4318778 33.629192,46.7254961 L33.629192,46.7254961 L33.629192,39.274469 C33.629192,38.5680874 32.9617841,37.9954519 32.1384948,37.9954519 Z M9.19894829,40.6155922 L8.66372741,40.6155922 C7.84050202,40.6170741 7.17358729,41.1889188 7.17186025,41.8941869 L7.17186025,41.8941869 L7.17186025,44.1048078 C7.1739274,44.8109921 7.84030722,45.3828905 8.66255746,45.3843718 L8.66255746,45.3843718 L9.19894829,45.3843718 L9.19894829,40.6155922 Z M36.3379365,40.6155933 L35.8010521,40.6155933 L35.8010521,45.3843729 L36.336273,45.3843729 C37.1594782,45.382891 37.8260725,44.8111763 37.8281408,44.1053142 L37.8281408,44.1053142 L37.8281408,41.8951911 C37.8264142,41.1892874 37.159928,40.6170751 36.3379365,40.6155933 L36.3379365,40.6155933 Z M24.7488482,10 C25.3638398,10 25.8689264,10.4772721 25.9296599,11.0897552 L25.9357828,11.2139532 L25.9357828,13.0895209 L31.3945162,13.0895209 C33.3184955,13.0895209 34.8930965,14.6357299 34.9947827,16.5796474 L35,16.7753223 L35,33.841 L32.626,33.841 L32.6261308,24.1680858 L2.37386911,24.1680858 L2.37386911,41.3144301 C2.37386911,41.9640902 2.85902349,42.5010059 3.47805404,42.5655826 L3.60354109,42.5720936 L4.662,42.572 L4.662,44.999 L3.60354109,45 C1.68094882,45 0.104698528,43.4512998 0.00500557745,41.5098422 L1.70530257e-12,41.3144301 L1.70530257e-12,16.7750908 C1.70530257e-12,14.8087338 1.51423118,13.1966027 3.41247819,13.0946404 L3.60354109,13.0895209 L6.68840537,13.0895209 L6.68840537,15.5174273 L3.60354109,15.5174273 C2.96834031,15.5174273 2.44337461,16.0136255 2.38023515,16.6467473 L2.37386911,16.7750908 L2.37386911,21.7401794 L32.6241881,21.7401794 L32.6241881,16.7750908 C32.6241881,16.1254307 32.1390338,15.588515 31.5200032,15.5239383 L31.3945162,15.5174273 L25.9357828,15.5174273 L25.9357828,16.7750908 C25.9357828,17.4460144 25.4048392,17.9890441 24.7488482,17.9890441 C24.1338567,17.9890441 23.6287701,17.5117719 23.5680366,16.8992889 L23.5619137,16.7750908 L23.5619137,11.2139532 C23.5619137,10.5430296 24.0928572,10 24.7488482,10 Z M9.94421931,10.198683 C10.4537298,10.198683 10.8729343,10.5902079 10.9302211,11.0954634 L10.9368929,11.2139532 L10.9368929,13.2882039 L20.6887938,13.2882039 L20.6887938,15.3187443 L10.9368929,15.3187443 L10.9368929,16.7750908 C10.9368929,17.3362848 10.4929229,17.790361 9.94421931,17.790361 C9.4347088,17.790361 9.01550436,17.3988361 8.95821756,16.8935807 L8.95154573,16.7750908 L8.95154573,11.2139532 C8.95154573,10.6527592 9.39551569,10.198683 9.94421931,10.198683 Z" id="Combined-Shape-Copy-3" fill="#000000" fill-rule="nonzero"></path>
                <rect id="Rectangle" stroke="#FFF3E9" opacity="0.103190104" x="2.5" y="-0.5" width="37" height="56"></rect>
            </g>
        </g>
    </g>
</svg>
