<svg xmlns="http://www.w3.org/2000/svg" width="36" height="55" viewBox="0 0 36 55">
    <g fill="none" fill-rule="nonzero">
        <path fill="#FF316D" d="M13.426 38.67l5.104 5.104c.121.12.317.12.437 0l5.104-5.104a3.59 3.59 0 0 0-5.077-5.077c-.194.194-.245.28-.245.28s-.155-.189-.246-.28a3.59 3.59 0 0 0-5.077 5.077z"/>
        <path fill="#000" d="M16.82 6.047c.11.405.168.83.168 1.27V22.74a1.719 1.719 0 0 1-3.438 0V7.317c0-.801-.676-1.464-1.526-1.464-.849 0-1.525.663-1.525 1.464v20.419c0 2.072-2.989 2.373-3.403.343l-.299-1.469-.035-.343v-1.665c0-.72-.608-1.317-1.376-1.317H4.01V33.71l.002.326v3.103c0 7.642 6.329 13.85 14.152 13.85 7.753 0 14.053-6.103 14.15-13.676l.003-.274V14.025c0-.611-.52-1.12-1.176-1.12-.657 0-1.176.509-1.176 1.12v8.716c0 .276-.065.537-.181.769v.894a1.719 1.719 0 0 1-3.438 0V8.352c0-.88-.682-1.578-1.505-1.578-.824 0-1.507.698-1.507 1.578v15.13a1.719 1.719 0 0 1-3.437 0V5.577c0-.872-.681-1.566-1.506-1.566s-1.506.694-1.506 1.566c0 .164-.023.321-.065.47zm-2.615-3.134a4.924 4.924 0 0 1 4.186-2.34c2.081 0 3.855 1.298 4.586 3.132a4.87 4.87 0 0 1 1.864-.368c2.738 0 4.943 2.253 4.943 5.015v1.315c.43-.13.885-.2 1.357-.2 2.54 0 4.613 2.033 4.613 4.558V37.06l-.003.296c-.121 9.47-7.967 17.071-17.587 17.071-9.707 0-17.59-7.732-17.59-17.288v-3.084l-.001-.345V21.566c0-.95.77-1.719 1.719-1.719h3.094c.59 0 1.154.105 1.676.296V7.317c0-2.714 2.23-4.901 4.962-4.901.782 0 1.522.178 2.181.497z"/>
    </g>
</svg>
