<svg xmlns="http://www.w3.org/2000/svg" width="17" height="13" viewBox="0 0 17 13">
    <path fill="#000" fill-rule="nonzero" d="M11.682 8.587l-.07-.127V4.228l.069-.127 3.855-2.477v9.394l-3.854-2.431zm-.207 1.67l.066-.167.153.094 3.925 2.43a.735.735 0 0 0 .759-.04.874.874 0 0 0 .379-.73V.858c0-.3-.145-.577-.38-.732a.728.728 0 0 0-.746-.045l-4.044 2.675-.063-.182A3.851 3.851 0 0 0 7.89.001H3.85A3.85 3.85 0 0 0 0 3.851v5a3.85 3.85 0 0 0 3.85 3.85h4.04a3.851 3.851 0 0 0 3.585-2.444zM3.85 1.201h4.04a2.65 2.65 0 0 1 2.65 2.65v5a2.65 2.65 0 0 1-2.65 2.65H3.85a2.65 2.65 0 0 1-2.65-2.65v-5a2.65 2.65 0 0 1 2.65-2.65z"/>
</svg>
